<svg width="42" height="30" viewBox="0 0 42 30" fill="none" xmlns="http://www.w3.org/2000/svg">
<path d="M41.0255 5.09682C40.5554 3.32955 39.1648 1.93537 37.3955 1.45755C34.1963 0.600098 21.3607 0.600098 21.3607 0.600098C21.3607 0.600098 8.53165 0.600098 5.32601 1.45755C3.56324 1.92883 2.1726 3.32301 1.696 5.09682C0.840729 8.3041 0.840729 15.0001 0.840729 15.0001C0.840729 15.0001 0.840729 21.6961 1.696 24.9034C2.16607 26.6706 3.55671 28.0648 5.32601 28.5426C8.53165 29.4001 21.3607 29.4001 21.3607 29.4001C21.3607 29.4001 34.1963 29.4001 37.3955 28.5426C39.1582 28.0714 40.5489 26.6772 41.0255 24.9034C41.8807 21.6961 41.8807 15.0001 41.8807 15.0001C41.8807 15.0001 41.8807 8.3041 41.0255 5.09682Z" fill="#FF3000"/>
<path d="M17.2606 21.1725L27.9222 15.0001L17.2606 8.82773V21.1725Z" fill="white"/>
</svg>
